<?xml version="1.0" encoding="utf-8"?>
<!-- Generator: Adobe Illustrator 16.0.0, SVG Export Plug-In . SVG Version: 6.00 Build 0)  -->
<!DOCTYPE svg PUBLIC "-//W3C//DTD SVG 1.1//EN" "http://www.w3.org/Graphics/SVG/1.1/DTD/svg11.dtd">
<svg version="1.1" id="Name" xmlns="http://www.w3.org/2000/svg" xmlns:xlink="http://www.w3.org/1999/xlink" x="0px" y="0px"
	 width="310.875px" height="40.902px" viewBox="0 0 310.875 40.902" enable-background="new 0 0 310.875 40.902"
	 xml:space="preserve">
<g>
	<polygon fill="#811517" points="10.356,30.239 0,4.01 2.325,3.092 10.356,23.43 18.383,3.092 20.708,4.01 	"/>
	<polygon fill="#811517" points="27.766,4.012 11.781,40.9 25.442,3.09 	"/>
	<polygon fill="#811517" points="34.986,10.745 33.736,34.658 32.486,10.745 	"/>
	<polygon fill="#811517" points="55.358,28.084 42.636,28.084 42.636,10.745 45.136,10.745 45.136,25.584 55.358,25.584 	"/>
	<polygon fill="#811517" points="75.874,28.084 63.151,28.084 63.151,10.745 65.651,10.745 65.651,25.584 75.874,25.584 	"/>
	<polygon fill="#811517" points="88.814,10.745 87.564,34.658 86.314,10.745 	"/>
	<polygon fill="#811517" points="123.41,27.293 121.085,26.375 128.602,7.341 136.115,26.375 133.79,27.293 128.601,14.149 	"/>
	<polygon fill="#811517" points="134.778,10.292 142.919,34.658 132.448,11.198 	"/>
	<polygon fill="#811517" points="212.366,28.084 199.644,28.084 199.644,10.745 202.144,10.745 202.144,25.584 212.366,25.584 	"/>
	<polygon fill="#811517" points="268.176,10.75 266.844,34.658 265.676,10.741 	"/>
	<polygon fill="#811517" points="310.875,10.749 309.551,34.658 308.375,10.741 	"/>
	<path fill="#811517" d="M283.285,28.03c-5.114,0-9.274-4.156-9.274-9.264c0-5.112,4.16-9.271,9.274-9.271
		c2.624,0,5.136,1.117,6.891,3.064l-1.857,1.674c-1.281-1.422-3.116-2.238-5.033-2.238c-3.735,0-6.774,3.037-6.774,6.771
		c0,3.73,3.039,6.764,6.774,6.764c1.923,0,3.757-0.815,5.031-2.236l1.861,1.67C288.429,26.912,285.917,28.03,283.285,28.03z"/>
	<polyline fill="#811517" points="105.198,13.961 102.572,20.617 104.404,20.617 104.404,23.117 101.585,23.117 99.937,27.293 
		97.611,26.375 98.897,23.117 96.644,23.117 96.644,20.617 99.883,20.618 103.961,10.286 105.216,7.106 105.232,7.106 
		106.304,10.289 114.51,34.658 105.216,13.961 	"/>
	<polyline fill="#811517" points="184.384,6.834 178.943,20.617 183.291,20.617 183.291,23.117 177.956,23.117 176.306,27.293 
		173.98,26.375 175.267,23.117 172.061,23.117 172.061,20.617 176.254,20.618 183.173,3.092 184.394,0 184.402,0 185.507,3.094 
		199.016,40.9 184.394,6.834 	"/>
	<path fill="#811517" d="M222.145,11.983c0.093,0.006,0.187,0.012,0.281,0.018c1.037,0.107,2.252,0.247,3.529,0.552
		c1.276,0.302,2.638,0.726,3.963,1.379c1.313,0.654,2.633,1.529,3.559,2.754c0.467,0.603,0.847,1.285,1.029,2.03l0.066,0.221
		l0.044,0.33l0.044,0.331c0.011,0.106-0.01,0.17-0.011,0.258c0.009,0.313-0.075,0.7-0.176,1.065c-0.481,1.48-1.771,2.76-3.191,3.767
		c-1.449,1.004-3.075,1.792-4.729,2.428c-1.669,0.644-3.327,1.113-5.021,1.462c-3.352,0.759-6.479,1.468-9.16,2.075
		c-5.402,0.995-9.004,1.659-9.004,1.659s3.635-0.511,9.086-1.277c2.706-0.493,5.862-1.068,9.244-1.685
		c1.687-0.271,3.474-0.692,5.199-1.277c1.737-0.586,3.47-1.329,5.082-2.347c1.574-1.034,3.143-2.36,3.896-4.32
		c0.16-0.493,0.302-0.986,0.315-1.57c0.03-0.304,0.009-0.529-0.015-0.742l-0.03-0.332c-0.026-0.241-0.058-0.276-0.087-0.424
		c-0.202-0.985-0.653-1.885-1.201-2.66c-1.098-1.576-2.594-2.642-4.049-3.449c-1.47-0.803-2.95-1.332-4.332-1.722
		c-1.384-0.392-2.672-0.6-3.85-0.769c-0.558-0.06-1.08-0.116-1.563-0.168c-0.491-0.04-0.943-0.076-1.351-0.108
		c-1.6-0.126-2.513-0.199-2.513-0.199l-0.146,2.496c0,0,0.916,0.033,2.52,0.091c0.023,0.001,0.047,0.002,0.071,0.002v14.979h2.5
		V11.983z"/>
	<polygon fill="#811517" points="297.447,23.117 297.447,26.834 299.947,26.834 299.947,23.117 301.844,23.117 301.844,20.617 
		299.947,20.617 299.947,10.745 297.447,10.745 297.447,20.617 294.088,20.617 294.088,23.117 	"/>
	<path fill="#811517" d="M247.55,18.839l2.798-0.967l0.002,0c0.967-0.3,1.931-0.609,2.812-0.977c0.874-0.359,1.704-0.809,2.069-1.29
		c0.186-0.237,0.282-0.467,0.325-0.794c0.015-0.163,0.029-0.367,0.009-0.459c-0.009-0.057-0.034-0.146-0.079-0.214
		c-0.086-0.15-0.343-0.363-0.691-0.544c-0.35-0.182-0.775-0.337-1.219-0.47c-1.807-0.519-3.851-0.747-5.861-0.935
		c-0.175-0.015-0.35-0.029-0.524-0.043c0.001,0,0.001,14.688,0.001,14.688h-2.5V11.966c-1.04-0.068-2.086-0.133-3.127-0.205
		l0.162-2.495c2.063,0.144,4.11,0.253,6.21,0.434c1.045,0.092,2.094,0.208,3.148,0.361c1.056,0.157,2.117,0.349,3.205,0.667
		c0.544,0.164,1.097,0.356,1.664,0.651c0.556,0.3,1.18,0.698,1.649,1.43c0.23,0.37,0.382,0.777,0.442,1.231
		c0.054,0.42,0.024,0.736-0.009,1.084c-0.077,0.698-0.382,1.461-0.844,2.029c-0.458,0.574-0.999,0.972-1.518,1.286
		c-0.521,0.304-1.042,0.553-1.554,0.763c-0.142,0.059-0.283,0.115-0.424,0.17l36.581,21.528l-40.167-20.739l-2.562-1.322"/>
</g>
</svg>
