<?xml version="1.0" encoding="utf-8"?>
<!-- Generator: Adobe Illustrator 16.0.0, SVG Export Plug-In . SVG Version: 6.00 Build 0)  -->
<!DOCTYPE svg PUBLIC "-//W3C//DTD SVG 1.1//EN" "http://www.w3.org/Graphics/SVG/1.1/DTD/svg11.dtd">
<svg version="1.1" id="Layer_1" xmlns="http://www.w3.org/2000/svg" xmlns:xlink="http://www.w3.org/1999/xlink" x="0px" y="0px"
	 width="637.472px" height="77.832px" viewBox="0 0 637.472 77.832" enable-background="new 0 0 637.472 77.832"
	 xml:space="preserve">
<g>
	<polyline fill="none" stroke="#811517" stroke-width="3.5" stroke-miterlimit="10" points="37.517,4.915 19.572,50.361 
		1.628,4.915 	"/>
	<g>
		<polygon fill="#811517" points="52.924,5.56 22.358,77.832 49.671,4.269 		"/>
	</g>
	<g>
		<polygon fill="#811517" points="66.973,18.953 65.223,65.645 63.473,18.953 		"/>
	</g>
	<polyline fill="none" stroke="#811517" stroke-width="3.5" stroke-miterlimit="10" points="107.428,50.361 85.033,50.361 
		85.033,18.953 	"/>
	<polyline fill="none" stroke="#811517" stroke-width="3.5" stroke-miterlimit="10" points="147.479,50.361 125.084,50.361 
		125.084,18.953 	"/>
	<g>
		<polygon fill="#811517" points="172.054,18.953 170.304,65.645 168.554,18.953 		"/>
	</g>
	<polyline fill="none" stroke="#811517" stroke-width="3.5" stroke-miterlimit="10" points="238.015,50.361 250.417,18.952 
		262.818,50.361 	"/>
	<g>
		<polygon fill="#811517" points="261.835,18.317 278.373,65.645 258.573,19.587 		"/>
	</g>
	<g>
		<polygon fill="#811517" points="222.878,65.645 202.96,19.591 206.218,19.595 193.816,51.004 190.561,49.719 202.962,18.31 
			204.684,13.951 206.219,18.314 		"/>
	</g>
	<g>
		<polygon fill="#811517" points="419.761,77.832 389.49,5.554 392.747,5.557 374.803,51.004 371.547,49.719 389.491,4.272 
			391.178,0 392.748,4.275 		"/>
	</g>
	<polyline fill="none" stroke="#811517" stroke-width="3.5" stroke-miterlimit="10" points="445.839,50.361 423.445,50.361 
		423.445,18.952 	"/>
	
		<line fill="none" stroke="#811517" stroke-width="3.5" stroke-miterlimit="10" x1="462.491" y1="20.669" x2="462.491" y2="50.361"/>
	
		<line fill="none" stroke="#811517" stroke-width="3.5" stroke-miterlimit="10" x1="511.389" y1="20.669" x2="511.389" y2="50.361"/>
	<g>
		<polygon fill="#811517" points="554.101,18.958 552.201,65.645 550.601,18.947 		"/>
	</g>
	
		<line fill="none" stroke="#811517" stroke-width="3.5" stroke-miterlimit="10" x1="614.379" y1="18.952" x2="614.379" y2="50.361"/>
	<g>
		<polygon fill="#811517" points="637.472,18.958 635.571,65.645 633.972,18.946 		"/>
	</g>
	<path fill="none" stroke="#811517" stroke-width="3.5" stroke-miterlimit="10" d="M595.933,45.086
		c-2.866,3.185-7.021,5.188-11.644,5.188c-8.649,0-15.661-7.012-15.661-15.661s7.012-15.661,15.661-15.661
		c4.622,0,8.776,2.003,11.644,5.188"/>
	
		<line fill="none" stroke="#811517" stroke-width="3.5" stroke-miterlimit="10" x1="188.033" y1="40.666" x2="203.178" y2="40.666"/>
	
		<line fill="none" stroke="#811517" stroke-width="3.5" stroke-miterlimit="10" x1="367.158" y1="40.666" x2="389.075" y2="40.666"/>
	<g>
		<path fill="#811517" d="M455.234,16.764c0,0,1.784,0.132,4.907,0.362c0.792,0.059,1.669,0.125,2.624,0.197
			c0.943,0.097,1.944,0.173,3.05,0.307c2.262,0.312,4.756,0.697,7.429,1.438c2.668,0.736,5.526,1.738,8.356,3.265
			c2.803,1.533,5.674,3.563,7.77,6.542c1.047,1.465,1.91,3.161,2.3,5.018l0.087,0.344l0.043,0.172
			c0.009,0.056-0.006-0.065,0.023,0.137l0.004,0.041l0.008,0.081l0.062,0.647l0.062,0.649c0.015,0.225-0.019,0.507-0.029,0.759
			c-0.021,1.065-0.282,1.997-0.58,2.925c-0.64,1.858-1.828,3.404-3.102,4.77c-1.278,1.387-2.791,2.477-4.312,3.511
			c-3.103,1.982-6.454,3.447-9.822,4.605c-3.358,1.163-6.802,1.98-10.083,2.607c-3.289,0.662-6.452,1.371-9.499,1.855
			c-3.035,0.527-5.903,1.025-8.552,1.485c-2.653,0.413-5.085,0.791-7.24,1.126c-2.155,0.333-4.032,0.636-5.589,0.822
			c-3.104,0.407-4.879,0.64-4.879,0.64s1.767-0.287,4.856-0.789c1.548-0.233,3.414-0.593,5.558-0.992
			c2.143-0.401,4.561-0.853,7.197-1.347c2.625-0.539,5.47-1.123,8.478-1.74c3.013-0.574,6.159-1.38,9.425-2.142
			c3.288-0.733,6.578-1.624,9.846-2.866c3.252-1.229,6.456-2.756,9.33-4.72c2.815-1.974,5.41-4.484,6.427-7.507
			c0.214-0.749,0.396-1.534,0.386-2.22c0.003-0.184,0.041-0.337,0.022-0.546l-0.082-0.646l-0.081-0.646l-0.011-0.081l-0.005-0.04
			c0.028,0.175,0.002,0.028,0.006,0.058l-0.042-0.141l-0.082-0.282c-0.364-1.521-1.127-2.913-2.061-4.138
			c-1.855-2.489-4.479-4.251-7.083-5.57c-2.628-1.316-5.318-2.173-7.839-2.785c-2.524-0.619-4.916-0.909-6.979-1.135
			c-1.062-0.096-2.099-0.145-3.035-0.212c-0.929-0.041-1.781-0.078-2.552-0.112c-3.129-0.135-4.916-0.212-4.916-0.212
			L455.234,16.764z"/>
	</g>
	
		<line fill="none" stroke="#811517" stroke-width="3.5" stroke-miterlimit="10" x1="605.384" y1="40.666" x2="620.529" y2="40.666"/>
	<g>
		<path fill="#811517" d="M597.945,77.832l-78.084-41.096l-3.601-1.895l3.932-1.31l0.003-0.001c1.899-0.588,3.789-1.198,5.553-1.928
			c1.746-0.721,3.438-1.61,4.318-2.728c0.438-0.554,0.681-1.149,0.774-1.89c0.044-0.364,0.059-0.802,0.015-1.072
			c-0.032-0.221-0.117-0.483-0.256-0.699c-0.272-0.452-0.874-0.919-1.612-1.305c-0.742-0.386-1.607-0.699-2.501-0.965
			c-1.8-0.528-3.729-0.884-5.673-1.17c-1.948-0.284-3.923-0.5-5.907-0.675c-3.958-0.339-8.007-0.56-12.023-0.841l0.229-3.492
			c4.026,0.283,8.029,0.499,12.104,0.847c2.031,0.179,4.065,0.401,6.106,0.698c2.042,0.303,4.09,0.672,6.16,1.278
			c1.035,0.311,2.079,0.676,3.127,1.219c1.028,0.553,2.146,1.279,2.956,2.548c0.398,0.639,0.658,1.346,0.763,2.123
			c0.091,0.73,0.056,1.308-0.015,1.942c-0.141,1.261-0.674,2.607-1.503,3.626c-0.82,1.03-1.809,1.755-2.778,2.342
			c-0.977,0.582-1.962,1.04-2.942,1.446c-1.962,0.81-3.916,1.436-5.865,2.041l-0.003,0l0.331-3.205L597.945,77.832z"/>
	</g>
</g>
</svg>
