<?xml version="1.0" encoding="utf-8"?>
<!-- Generator: Adobe Illustrator 16.0.0, SVG Export Plug-In . SVG Version: 6.00 Build 0)  -->
<!DOCTYPE svg PUBLIC "-//W3C//DTD SVG 1.1//EN" "http://www.w3.org/Graphics/SVG/1.1/DTD/svg11.dtd">
<svg version="1.1" id="Layer_1" xmlns="http://www.w3.org/2000/svg" xmlns:xlink="http://www.w3.org/1999/xlink" x="0px" y="0px"
	 width="711px" height="254.5px" viewBox="0 0 711 254.5" enable-background="new 0 0 711 254.5" xml:space="preserve">
<g id="Layer_1_1_">
</g>
<g id="Layer_2">
	<path fill="#777777" d="M284.6,1.6c1.299,1.315,2.65,2.583,3.868,3.969c0.445,0.506,0.802,1.292,0.807,1.952
		c0.055,7.849,0.052,15.698,0.003,23.547c-0.004,0.62-0.462,1.236-0.713,1.853c-0.018,0.043-0.072,0.069-0.102,0.109
		c-2.169,3-5.009,3.795-8.748,3.771c-29.695-0.171-59.392-0.095-89.088-0.095c-1.963,0-1.963,0.001-1.963,1.97
		c0,21.397,0,42.794,0,64.192c0,1.93,0.001,1.931,2.002,1.931c25.347,0,50.693,0.009,76.04-0.025c1.256-0.002,2.08,0.48,3.042,1.22
		c2.662,2.049,3.442,4.567,3.301,7.904c-0.275,6.538-0.099,13.095-0.062,19.644c0.006,1.122-0.396,1.894-1.085,2.784
		c-2.119,2.744-4.744,3.438-8.168,3.413c-24.396-0.148-48.793-0.064-73.19-0.113c-1.543-0.004-1.916,0.438-1.913,1.938
		c0.045,24.697,0.047,49.396-0.002,74.094c-0.003,1.551,0.454,1.902,1.949,1.9c33.096-0.043,66.191-0.022,99.288-0.06
		c1.362-0.001,2.253,0.519,3.294,1.34c2.594,2.048,3.382,4.511,3.251,7.79c-0.259,6.539-0.036,13.096-0.125,19.645
		c-0.012,0.879-0.542,1.845-1.065,2.606c-2.009,2.938-4.796,3.612-8.353,3.597c-33.845-0.146-67.691-0.102-101.537-0.078
		c-11.345,0.009-22.691,0.09-34.036,0.189c-1.36,0.014-2.275-0.518-3.323-1.318c-2.724-2.08-3.358-4.67-3.344-8.03
		c0.132-30.396,0.077-60.792,0.077-91.188c0-2.008,0-2.012-1.954-2.013c-7.149-0.002-14.298,0.015-21.447-0.021
		c-1.007-0.006-1.611,0.311-2.191,1.178c-9.485,14.189-19.009,28.354-28.531,42.521c-12.864,19.139-25.741,38.271-38.58,57.424
		c-0.643,0.959-1.351,1.271-2.464,1.271c-13.798-0.031-27.597-0.034-41.395,0.005c-1.159,0.003-1.86-0.34-2.351-1.392
		c-0.674-1.44-1.449-2.838-2.214-4.233c-0.15-0.272-0.45-0.465-0.68-0.692c0-0.5,0-1,0-1.5c0.363-0.404,0.77-0.777,1.083-1.221
		c9.495-13.345,18.975-26.697,28.468-40.045c14.3-20.102,28.608-40.193,42.911-60.294c1.524-2.144,3.032-4.294,4.602-6.521
		c-0.625-0.338-1.096-0.609-1.583-0.853c-10.4-5.122-19.757-11.65-27.438-20.42c-6.098-6.961-10.563-14.854-13.38-23.671
		c-2.232-6.988-3.384-14.148-3.682-21.485c-0.375-9.264,0.384-18.385,3.302-27.206c4.896-14.803,14.636-25.436,28.553-32.28
		c11.008-5.414,22.782-7.757,34.948-8.451c1.412-0.08,2.812-0.368,4.217-0.56C164.8,1.6,224.7,1.6,284.6,1.6z M144.709,76.015
		c0-12.543-0.013-25.086,0.02-37.629c0.003-1.171-0.234-1.723-1.557-1.701c-10.081,0.167-20.18-0.398-30.231,0.88
		c-6.362,0.809-12.575,2.173-18.401,4.936c-9.336,4.426-14.965,11.671-15.956,22.046c-0.643,6.732-0.196,13.449,1.653,20.038
		c2.116,7.54,6.057,13.854,12.195,18.719c7.612,6.032,16.578,8.77,25.969,10.376c8.099,1.386,16.279,1.528,24.471,1.524
		c1.424,0,1.877-0.385,1.87-1.86C144.684,100.902,144.708,88.458,144.709,76.015z"/>
	<path fill="#777777" d="M317.3,1.6c11.4,0,22.799,0,34.2,0c1.214,1.254,2.516,2.436,3.605,3.79
		c0.566,0.708,1.083,1.715,1.084,2.587c0.055,31.194,0.046,62.388,0.046,93.582c0,2.025-0.001,2.026,2.057,2.026
		c33.843,0,67.687,0,101.529,0c1.926,0,1.923,0,1.923-1.989c0-31.244-0.009-62.488,0.043-93.731c0.002-0.828,0.504-1.78,1.048-2.454
		c1.088-1.351,2.366-2.548,3.565-3.809c12.896,0,25.8,0,38.696,0c0.117,0.217,0.223,0.445,0.354,0.65
		c9.327,14.291,18.665,28.574,27.984,42.869c14.854,22.784,29.699,45.574,44.55,68.363c12.61,19.36,25.224,38.723,37.837,58.083
		c1.091,1.677,2.188,3.345,3.287,5.016c0.298-0.504,0.334-0.889,0.334-1.271c0.002-55.847-0.006-111.69,0.043-167.539
		c0.001-0.825,0.511-1.765,1.042-2.45c1.021-1.317,2.232-2.489,3.369-3.722c9.8,0,19.6,0,29.396,0
		c1.165,1.166,2.279,2.387,3.511,3.478c0.943,0.835,1.269,1.755,1.269,3.012c-0.027,78.292-0.025,156.583-0.025,234.875
		c0,5.081,0.022,5.105-3.707,8.559c-0.521,0.481-1.386,0.834-2.094,0.836c-11.099,0.055-22.197,0.022-33.296,0.06
		c-1.089,0.004-1.75-0.386-2.315-1.282c-1.646-2.615-3.364-5.189-5.058-7.783c-9.212-14.127-18.432-28.252-27.625-42.396
		c-0.714-1.101-1.494-1.622-2.902-1.62c-24.646,0.049-49.294,0.036-73.938,0.036c-2.001,0-2.001,0.003-2.001,1.961
		c0.001,14.998,0.004,29.996-0.012,44.995c0,0.585,0.067,1.365-0.26,1.723c-2.162,2.346-4.071,4.75-7.978,4.61
		c-8.338-0.304-16.695-0.095-25.044-0.095c-5.337,0-5.37,0.031-9.036-3.812c-0.576-0.604-0.998-1.635-1-2.469
		c-0.049-35.349-0.051-70.69-0.009-106.039c0.002-1.463-0.415-1.831-1.85-1.829c-33.896,0.038-67.793,0.029-101.688,0.029
		c-2.006,0-2.006,0.001-2.006,1.928c0.001,34.098-0.062,68.191,0.089,102.289c0.017,3.708-0.66,6.633-3.751,8.734
		c-0.691,0.472-1.565,0.949-2.359,0.953c-10.548,0.062-21.098,0.047-31.646,0.031c-0.485-0.001-1.148,0.027-1.43-0.255
		c-2.087-2.112-4.587-3.604-4.581-7.453c0.136-78.938,0.1-157.882,0.146-236.824c0-0.83,0.484-1.791,1.026-2.463
		C314.816,4.043,316.099,2.854,317.3,1.6z M505.551,80.938c-0.13,0.058-0.26,0.117-0.39,0.175c-0.021,0.188-0.056,0.376-0.056,0.562
		c0,27.09,0.012,54.183-0.021,81.271c-0.002,1.315,0.494,1.577,1.669,1.575c17.193-0.024,34.388-0.019,51.582-0.021
		c0.458,0,0.916-0.076,1.678-0.146C541.736,136.361,523.643,108.649,505.551,80.938z"/>
</g>
<path fill="#777777" d="M708.076,222.93c0-0.947,0-1.894,0-2.84c0-1.258-0.322-2.178-1.269-3.013
	c-1.229-1.091-2.346-2.312-3.511-3.478H673.9c-1.137,1.229-2.348,2.401-3.369,3.721c-0.531,0.686-1.041,1.625-1.042,2.451
	c-0.003,3.289-0.004,6.578-0.005,9.869c0.022,0,0.05,0.002,0.072,0.002c0,5.346,0.001,10.688-0.001,16.031
	c0,1.26,0.322,2.178,1.269,3.014c1.229,1.09,2.346,2.312,3.511,3.479h29.399c1.134-1.232,2.345-2.405,3.366-3.723
	c0.531-0.687,1.041-1.625,1.042-2.448c0.01-7.688,0.01-15.378,0.011-23.067C708.128,222.928,708.102,222.93,708.076,222.93z"/>
<g id="Layer_4" display="none">
</g>
</svg>
